<mxfile host="app.diagrams.net" modified="2021-10-13T14:05:46.690Z" agent="5.0 (Windows NT 10.0; Win64; x64) AppleWebKit/537.36 (KHTML, like Gecko) Chrome/94.0.4606.81 Safari/537.36" etag="DqFqv2JsuU0sWWFvseWd" version="15.3.3" type="github">
  <diagram id="R2lEEEUBdFMjLlhIrx00" name="Page-1">
    <mxGraphModel dx="1888" dy="1647" grid="1" gridSize="10" guides="1" tooltips="1" connect="1" arrows="1" fold="1" page="1" pageScale="1" pageWidth="850" pageHeight="1100" math="0" shadow="0" extFonts="Permanent Marker^https://fonts.googleapis.com/css?family=Permanent+Marker">
      <root>
        <mxCell id="0" />
        <mxCell id="1" parent="0" />
        <mxCell id="NmJITXEwXvut9jyXXqUd-1" value="" style="rounded=0;whiteSpace=wrap;html=1;hachureGap=4;pointerEvents=0;" vertex="1" parent="1">
          <mxGeometry x="260" y="-310" width="120" height="60" as="geometry" />
        </mxCell>
        <mxCell id="NmJITXEwXvut9jyXXqUd-2" value="" style="ellipse;whiteSpace=wrap;html=1;hachureGap=4;pointerEvents=0;" vertex="1" parent="1">
          <mxGeometry x="50" y="-440" width="120" height="80" as="geometry" />
        </mxCell>
        <mxCell id="NmJITXEwXvut9jyXXqUd-3" value="" style="ellipse;whiteSpace=wrap;html=1;hachureGap=4;pointerEvents=0;" vertex="1" parent="1">
          <mxGeometry x="740" y="-460" width="120" height="80" as="geometry" />
        </mxCell>
        <mxCell id="NmJITXEwXvut9jyXXqUd-4" value="" style="ellipse;whiteSpace=wrap;html=1;hachureGap=4;pointerEvents=0;" vertex="1" parent="1">
          <mxGeometry x="-20" y="-540" width="120" height="80" as="geometry" />
        </mxCell>
        <mxCell id="NmJITXEwXvut9jyXXqUd-5" value="" style="ellipse;whiteSpace=wrap;html=1;hachureGap=4;pointerEvents=0;" vertex="1" parent="1">
          <mxGeometry x="10" y="80" width="120" height="80" as="geometry" />
        </mxCell>
        <mxCell id="NmJITXEwXvut9jyXXqUd-6" value="" style="ellipse;whiteSpace=wrap;html=1;hachureGap=4;pointerEvents=0;" vertex="1" parent="1">
          <mxGeometry x="20" y="-240" width="120" height="80" as="geometry" />
        </mxCell>
        <mxCell id="NmJITXEwXvut9jyXXqUd-7" value="" style="ellipse;whiteSpace=wrap;html=1;hachureGap=4;pointerEvents=0;" vertex="1" parent="1">
          <mxGeometry x="40" y="-330" width="120" height="80" as="geometry" />
        </mxCell>
        <mxCell id="NmJITXEwXvut9jyXXqUd-8" value="" style="ellipse;whiteSpace=wrap;html=1;hachureGap=4;pointerEvents=0;" vertex="1" parent="1">
          <mxGeometry x="150" y="-530" width="120" height="80" as="geometry" />
        </mxCell>
      </root>
    </mxGraphModel>
  </diagram>
</mxfile>
